<svg xmlns="http://www.w3.org/2000/svg" id="Layer_2" data-name="Layer 2" viewBox="0 0 269.37 83.06"><defs><style>      .cls-1, .cls-2 {        fill: #8c2138;      }      .cls-3 {        fill: #2b2a29;      }      .cls-2 {        fill-rule: evenodd;      }    </style></defs><g id="Layer_1-2" data-name="Layer 1"><path class="cls-3" d="m55.73,69.84h5.15c2.14,0,3.55-.03,4.21-.08.38-.04.65-.15.82-.34.17-.19.29-.65.37-1.37l.14-1.35h.87c-.18,1.24-.27,2.43-.27,3.59v.65h-2.2c-.43,0-1.38-.01-2.84-.04-1.55-.02-3-.04-4.35-.04-2.21,0-3.91.02-5.12.07v-.69c.85-.94,1.85-2.18,3.01-3.73l5.37-7.11c1.45-1.93,2.49-3.32,3.1-4.19-1.14-.05-2.13-.07-2.97-.07-1.43,0-2.96.06-4.58.17-.72.06-1.14.14-1.26.26-.12.12-.21.47-.26,1.07l-.12,1.4h-.75c.05-.86.07-1.52.07-1.99s-.02-1.11-.07-1.94h1.47s9.28.07,9.28.07c1,0,1.84-.02,2.5-.07v.72c-.8.9-1.43,1.65-1.9,2.24l-3.78,4.98-5.9,7.81Zm-10.58-7.45c.78,1.11,1.73,2.4,2.88,3.88l2.28,2.94c.4.51.67.79.8.87.13.07.27.1.42.1h.31v.75c-.65-.05-1.22-.07-1.71-.07-.45,0-.93.02-1.42.07l-4.2-5.65c-.78-1.04-1.62-2.06-2.51-3.05l.12-.4c.46.04.8.06,1.02.06,1.32,0,2.35-.34,3.1-1.02.75-.68,1.12-1.58,1.12-2.72,0-1.01-.32-1.81-.95-2.38-.63-.57-1.54-.86-2.74-.86-.83,0-1.67.15-2.5.46-.09,1.25-.14,2.6-.14,4.02v5.71c0,2.78.07,4.33.2,4.63.13.3.57.46,1.3.46h.92v.75c-1.31-.05-2.39-.07-3.25-.07-.68,0-1.91.02-3.68.07v-.75h.88c.68,0,1.08-.15,1.21-.44.13-.3.19-1.85.19-4.66v-5.68c0-2.45-.07-3.81-.22-4.1-.15-.29-.62-.44-1.42-.44h-.64v-.75c1.47.05,2.59.07,3.36.07.52,0,1.27-.02,2.25-.06,1.14-.04,1.96-.06,2.45-.06,1.37,0,2.4.15,3.11.43.71.29,1.24.7,1.61,1.25.37.55.55,1.2.55,1.96,0,1.12-.4,2.1-1.2,2.95-.8.85-1.96,1.44-3.49,1.75Zm-27.76-7.54v-.75c1.62.05,2.79.07,3.53.07.77,0,1.91-.02,3.41-.07v.75h-.86c-.74,0-1.19.14-1.33.42-.15.29-.23,1.57-.23,3.86v4.64c0,1.69.09,2.87.28,3.54.19.66.66,1.22,1.44,1.68.77.46,1.81.69,3.1.69s2.46-.24,3.38-.73c.63-.34,1.09-.87,1.39-1.58.29-.72.44-2.07.44-4.06v-4.46c0-2.07-.09-3.25-.28-3.54-.19-.3-.69-.44-1.53-.44h-.61v-.75c1.64.05,2.68.07,3.12.07.72,0,1.61-.02,2.68-.07v.75h-.81c-.62,0-1.03.17-1.21.5-.18.34-.27,1.51-.27,3.53v4.43c0,2.03-.1,3.39-.3,4.1-.2.71-.57,1.34-1.1,1.91-.53.57-1.25,1.01-2.14,1.35-.89.33-1.93.5-3.13.5s-2.32-.15-3.26-.44c-.93-.29-1.63-.66-2.1-1.09-.47-.44-.81-.97-1.02-1.59-.21-.63-.31-1.69-.31-3.2l.02-2.25v-3.61c0-2.22-.06-3.47-.19-3.74-.13-.27-.55-.4-1.25-.4h-.84Zm-10.58,6.74l8.05,7.53.74.7c.15.15.3.25.45.3.15.05.41.07.76.07v.75c-.65-.05-1.21-.07-1.7-.07-.51,0-1.07.02-1.68.07l-8.16-7.74c-.27-.26-.44-.39-.5-.39-.17,0-.25.15-.25.46v3.61c0,1.76.04,2.72.1,2.89.12.28.55.42,1.29.42h.89v.75c-1.29-.05-2.43-.07-3.42-.07s-2.17.02-3.37.07v-.75h.96c.63,0,1.01-.12,1.13-.35.13-.23.19-1.24.19-3.01v-7.91c0-2.17-.06-3.39-.19-3.66-.13-.27-.5-.41-1.13-.41h-.96v-.75c1.45.05,2.49.07,3.14.07.46,0,1.68-.02,3.65-.07v.75l-.94.04c-.54.02-.88.1-1.02.22-.14.12-.23.36-.27.73-.04.36-.05,1.4-.05,3.13v3.19h.17c.65-.53,1.2-1.01,1.67-1.45.46-.44,1.23-1.21,2.3-2.3l3.36-3.48v-.82c.87.05,1.59.07,2.16.07s1.24-.02,1.96-.07v.75h-.64c-.57,0-1.05.11-1.45.32-.39.22-1.31.98-2.73,2.29l-4.5,4.12Z"></path><path class="cls-1" d="m80.7,20.95c2.17-.18,3.99.23,5.68,1.68,1.88,1.61,2.9,3.87,3.54,6.21.15.56.34,1.2.38,1.78,0,.03,0,.05,0,.08l.08.16c-.56.04-1.15.28-1.7.42-1.28.33-2.56.49-3.88.38-2.36-.2-4.26-1.3-5.75-3.13-.45-.55-1.02-1.29-1.31-1.85-.04-.24,1.5-1.69,1.76-2.11,1.06.73,3.07,1.7,4.27,2.21l.02-.03c-1.28-.91-2.71-1.72-4.07-2.51.57-.98.95-2.14.95-3.29"></path><path class="cls-1" d="m56.36,31.43c.12-3,1.09-6.21,3.28-8.35,1.79-1.75,4.03-2.36,6.48-2.33.02.56.12,1.09.26,1.64.21.68.45,1.26.83,1.87-.89.57-1.8,1.12-2.68,1.71l.02.05c.99-.39,1.91-.94,2.92-1.31.59.8,1.22,1.43,2.05,1.99-.48.88-1.16,2.11-1.99,2.69-1.05.73-1.84,1.03-2.83,1.4-1.94.73-3.98.8-6.03.67-.66-.04-1.39-.17-2.04-.13l-.27.1Z"></path><path class="cls-1" d="m56.38,11.16c1.38-1.15,4.07-1.51,5.81-1.36,2.23.2,4.45,1.29,5.89,3.03.41.5.74,1.06,1.06,1.62l-.49.38c-.64.62-1.19,1.26-1.64,2.04-.74-.32-1.48-.63-2.2-.97-.58-.27-1.25-.69-1.86-.85,1.22.87,2.55,1.59,3.75,2.49-.22.73-.45,1.46-.54,2.22-1.52-.11-2.97.1-4.4.64l-.52.23c-.74-.55-1.52-1.1-2.1-1.83-1.59-1.51-2.44-3.62-2.71-5.77-.07-.62-.06-1.24-.05-1.86"></path><path class="cls-1" d="m77.72,14.4c.94-1.86,2.62-3.34,4.58-4.04,2.86-1.03,5.57-.46,8.22.79-.03.44-.07.89-.1,1.33-.32,2.74-1.34,5.16-3.55,6.91-.58.46-1.25.89-1.93,1.18-1.37-.52-2.79-.76-4.26-.52-.09-.84-.24-1.56-.55-2.35,1.48-.96,3.01-1.82,4.52-2.74-1.63.6-3.16,1.43-4.76,2.08-.45-.74-.93-1.39-1.53-2.03l-.65-.61Z"></path><path class="cls-1" d="m73.62,27.9c1.19-.12,2.18-.41,3.27-.89.56.81.9,1.36,1.36,2.15.35.47.48.99.79,1.63-.18,3.36-1.93,6.55-4.42,8.78-.38.34-.79.64-1.22.91-2.57-1.58-4.79-4.73-5.5-7.65-.16-.66-.28-1.33-.33-2,.44-.38.83-.83,1.22-1.26.6-.76,1.13-1.52,1.61-2.36.82.43,1.62.6,2.54.7l.12,2.5c.03,1.28.02,2.8.26,4.05.16-1.56.13-3.14.28-4.7v-1.86Z"></path><path class="cls-1" d="m68.08,10.11c-.33-2.73.5-4.66,2.15-6.77.93-1.19,2.01-2.29,3.1-3.35,2.39,2.39,5.51,5.41,5.5,9.04,0,.35-.02.71-.11,1.05-.33,1.55-1.04,2.52-1.96,3.76-.94-.52-1.93-.73-3-.82-.16-1.72-.27-3.45-.38-5.18-.26.83-.33,4.16-.4,5.18-1.05,0-2.06.35-2.97.83-.72-1.33-1.52-2.23-1.92-3.76"></path><path class="cls-2" d="m69.63,24.4h7.69c.4,0,.75-.35.75-.76v-4.22c0-.23-.12-.4-.23-.59l-3.87-3.51c-.12-.12-.29-.17-.46-.17s-.35.06-.52.17l-3.87,3.51c-.17.12-.23.35-.23.59v4.22c0,.4.35.76.75.76m3.89-10.51c3.55,0,6.43,2.88,6.43,6.43s-2.88,6.43-6.43,6.43-6.43-2.88-6.43-6.43,2.88-6.43,6.43-6.43Z"></path><path class="cls-1" d="m81.7,53.2c.87-4.2,1.37-7.9,1.54-11.43.08-1.18-.23-3.96-.4-5.09-.43-4.16-3.93-8.08-6.18-11.53-.32.32-.4.4-.74.7,3.62,4.3,6.45,10.31,5.65,18.59-.06.39-.53,3.25-1.8,8.82.26,0,.53,0,.79,0s.88-.06,1.14-.06m-6.97,22.76c.56-1.37.96-2.38,1.49-3.83-.23,0-.47,0-.7,0-.46,0-.9,0-1.33,0-1.34,3.47-2.8,6.85-4.71,10.93h2.26c1.28-2.82,2.25-4.56,3.01-7.1Z"></path><path class="cls-2" d="m97.82,37.31c-2.66-.95-6.11-.64-9.26,1.1-3.15,1.74-5.25,4.5-5.86,7.25,2.66.95,6.11.64,9.26-1.1,3.15-1.74,5.25-4.5,5.86-7.25"></path><path class="cls-3" d="m211.31,56.99v8.08c0,1.84.04,3.12.1,3.84.06.55.15.89.27,1.01.13.12.5.21,1.12.26l.75.06v.74c-.85-.05-1.61-.07-2.3-.07-.48,0-1.56.02-3.27.07v-.74h.84c.51,0,.84-.07.99-.21.16-.14.25-.41.29-.82.08-.86.13-2.01.13-3.48v-5.78c0-1.09-.01-2.16-.04-3.22-.02-.45-.08-.76-.18-.93-.11-.17-.26-.31-.46-.45-.2-.13-.49-.2-.85-.2h-.72v-.74c.99.05,1.74.07,2.26.07.56,0,1.17-.02,1.84-.07.77.94,1.5,1.85,2.18,2.74.68.89,1.39,1.79,2.12,2.69l3.99,4.9c1.44,1.76,2.48,2.97,3.12,3.66v-7.48c0-3.13-.06-4.84-.17-5.13-.12-.29-.56-.48-1.35-.55l-.87-.08v-.74c1.25.05,2.22.07,2.91.07s1.65-.02,2.8-.07v.74h-.9c-.72,0-1.13.24-1.25.72-.07.32-.1,2.02-.1,5.1v5.26c0,1.41.06,3.1.19,5.07-1.05-.17-1.66-.29-1.83-.36-.17-.08-.33-.2-.49-.37-.86-.96-1.77-2.02-2.72-3.19l-8.4-10.38Zm-13.13,6.06v4.51c.01,1.03.02,1.78.05,2.26,1.14.08,2.36.13,3.66.13.87,0,1.6-.04,2.2-.12.38-.05.79-.15,1.21-.3.19-.68.39-1.54.6-2.57h.76c-.21,1.71-.31,2.85-.31,3.42l.02.53c-.9.06-1.78.1-2.64.1l-1.83-.03c-2.03-.04-3.51-.07-4.46-.07s-2.12.02-3.63.07v-.74h.36c.68,0,1.1-.07,1.28-.2.18-.13.29-.44.35-.93.06-.49.09-1.56.09-3.23v-6.39c0-1.05-.02-1.9-.08-2.57-.05-.67-.1-1.06-.16-1.19-.06-.13-.14-.23-.25-.3-.11-.07-.44-.13-1-.19l-.9-.09v-.74h1.26l1.23.04c.69.02,1.22.04,1.58.04l4.48-.06h2.13c.72-.02,1.45,0,2.19.06-.3.92-.47,2.13-.5,3.61h-.76c0-.86-.04-1.57-.13-2.14-.92-.34-2.05-.51-3.4-.51-1.07,0-2.19.05-3.36.14,0,.73,0,1.46-.02,2.19l-.02,1.8v2.37c.78.05,1.46.07,2.06.07,1.87,0,2.93-.06,3.18-.19.25-.13.37-.53.37-1.21v-.77h.76c-.06,1.18-.08,2.12-.08,2.82,0,.74.03,1.62.08,2.62h-.76v-.68c0-.74-.15-1.2-.44-1.37-.29-.17-1.33-.25-3.12-.25-.66,0-1.34.02-2.05.07Zm-12.63,7.19h.73c.72,0,1.15-.17,1.3-.52.14-.35.22-2.02.22-5.02v-3.94c0-3.1-.06-4.81-.19-5.13-.12-.32-.49-.48-1.11-.48h-.94v-.74c1.29.05,2.57.07,3.83.07,1.05,0,2-.02,2.86-.07v.74h-.9c-.55,0-.9.07-1.04.2-.14.13-.22.47-.24,1-.04.83-.06,2.31-.06,4.43v4.02c0,3.02.07,4.68.2,4.98.13.31.56.46,1.27.46h.77v.74c-.96-.05-2-.07-3.13-.07-1.31,0-2.5.02-3.56.07v-.74Zm-10.12-.39c.76.04,1.51.06,2.23.06,1.47,0,2.62-.04,3.44-.12.58-.06,1.17-.17,1.79-.34l.7-2.75h.74c-.2,1.47-.35,2.85-.45,4.13-.7.11-1.66.16-2.87.16l-5.56-.09c-.75,0-1.91.04-3.49.12v-.62c.62-.27.99-.56,1.1-.87.11-.31.17-1.54.17-3.69v-6.4c0-2.33-.06-3.63-.17-3.89-.12-.27-.43-.4-.95-.4h-1.27v-.74c1.85.05,3.08.07,3.69.07.81,0,1.9-.02,3.29-.07v.74h-1.45c-.41,0-.67.12-.78.35-.11.24-.16,1.22-.16,2.95v7.42l.04,3.29-.04.68Zm-12.51.39h.73c.72,0,1.15-.17,1.3-.52.14-.35.22-2.02.22-5.02v-3.94c0-3.1-.06-4.81-.19-5.13-.12-.32-.49-.48-1.11-.48h-.94v-.74c1.29.05,2.57.07,3.83.07,1.05,0,2-.02,2.86-.07v.74h-.9c-.55,0-.9.07-1.04.2-.14.13-.22.47-.24,1-.04.83-.06,2.31-.06,4.43v4.02c0,3.02.07,4.68.2,4.98.13.31.56.46,1.27.46h.77v.74c-.96-.05-2-.07-3.13-.07-1.31,0-2.5.02-3.56.07v-.74Zm-10.19-.43c.72.11,1.32.16,1.8.16,1.37,0,2.44-.37,3.2-1.1.76-.73,1.14-1.73,1.14-2.99,0-.84-.17-1.53-.5-2.08-.33-.55-.8-.95-1.41-1.2-.61-.25-1.57-.38-2.89-.38-.4,0-.84,0-1.34.02v5.6c.04.53.05.93.05,1.21,0,.21-.02.45-.05.73Zm0-8.53c.39.02.74.02,1.07.02,1.55,0,2.66-.27,3.32-.82.67-.55,1-1.34,1-2.37,0-.89-.28-1.58-.84-2.06-.56-.48-1.45-.72-2.68-.72-.55,0-1.14.05-1.78.15-.07.95-.1,2.39-.1,4.31v1.48Zm3.87.32c1.67.11,2.87.49,3.62,1.16.74.66,1.11,1.58,1.11,2.76,0,1.48-.62,2.77-1.86,3.84-1.24,1.08-2.82,1.62-4.73,1.62l-.92-.02c-.78-.03-1.44-.05-1.97-.05-.39,0-.87.01-1.44.04l-.97.03v-.53c.48-.24.77-.41.86-.54.09-.12.14-.33.15-.62.06-.92.08-1.98.08-3.16v-7.26c0-1.94-.07-3.04-.21-3.3-.17-.3-.58-.45-1.24-.45h-.79v-.72h.97l1.07.04c.56.02,1,.04,1.32.04.49,0,1.46-.02,2.91-.06l1.7-.04c1.34,0,2.34.23,3,.7.83.59,1.25,1.43,1.25,2.51,0,.89-.29,1.67-.88,2.34-.59.67-1.59,1.23-3.01,1.68Zm-24.84.12c0,1.76.3,3.29.9,4.59.6,1.3,1.41,2.27,2.42,2.92,1.01.65,2.17.98,3.46.98,1.21,0,2.26-.27,3.16-.83.9-.55,1.61-1.37,2.13-2.47.52-1.1.78-2.43.78-4,0-1.65-.29-3.06-.86-4.22-.57-1.17-1.36-2.05-2.35-2.64-1-.59-2.17-.89-3.53-.89-1.25,0-2.32.26-3.22.78-.9.52-1.61,1.29-2.12,2.29-.51,1-.77,2.17-.77,3.49Zm-2.36.96c0-2.56.82-4.61,2.47-6.17,1.65-1.56,3.84-2.34,6.59-2.34s4.8.72,6.33,2.17c1.52,1.45,2.29,3.38,2.29,5.78,0,2.59-.89,4.75-2.66,6.49-1.77,1.74-4,2.61-6.7,2.61-1.68,0-3.14-.34-4.36-1.03-1.22-.68-2.19-1.68-2.89-2.99-.71-1.31-1.06-2.82-1.06-4.51Zm-5.49-5.76l-3.47,7.21c-1.3,2.7-2.37,5.07-3.2,7.09h-.5c-.29-.69-1.1-2.45-2.46-5.3l-4.15-8.59v8.94c0,2.08.08,3.26.25,3.55.17.28.69.42,1.56.42h.43v.74c-1.08-.05-1.96-.07-2.64-.07-.49,0-1.47.02-2.93.07v-.74h.76c.51,0,.86-.08,1.03-.22.17-.15.27-.41.31-.8.1-1.09.14-2.26.14-3.51v-6.59c0-1.59-.04-2.64-.1-3.15-.03-.27-.15-.47-.34-.61-.2-.14-.59-.21-1.18-.21h-.62v-.74c1.35.05,2.2.07,2.55.07.44,0,1.07-.02,1.88-.07.94,2.1,2.02,4.41,3.25,6.93l3.06,6.33,2.85-5.86c1-2.05,2.14-4.51,3.42-7.4.97.05,1.66.07,2.05.07.46,0,1.29-.02,2.48-.07v.74h-.76c-.69,0-1.11.12-1.26.35-.15.24-.23,1.09-.23,2.56v8.51c0,1.89.08,2.98.24,3.26.16.28.61.42,1.34.42h.66v.74c-1.08-.05-2.11-.07-3.1-.07-1.09,0-2.23.02-3.42.07v-.74h.77c.61,0,.98-.14,1.11-.4.13-.27.19-1.42.19-3.45v-9.47Zm-22.59,0l-3.47,7.21c-1.3,2.7-2.37,5.07-3.2,7.09h-.5c-.29-.69-1.1-2.45-2.46-5.3l-4.15-8.59v8.94c0,2.08.08,3.26.25,3.55.17.28.69.42,1.56.42h.43v.74c-1.08-.05-1.96-.07-2.64-.07-.49,0-1.47.02-2.93.07v-.74h.76c.51,0,.86-.08,1.03-.22.17-.15.27-.41.31-.8.1-1.09.14-2.26.14-3.51v-6.59c0-1.59-.04-2.64-.1-3.15-.03-.27-.15-.47-.34-.61-.2-.14-.59-.21-1.18-.21h-.62v-.74c1.35.05,2.2.07,2.55.07.44,0,1.07-.02,1.88-.07.94,2.1,2.02,4.41,3.25,6.93l3.06,6.33,2.85-5.86c1-2.05,2.14-4.51,3.42-7.4.97.05,1.66.07,2.05.07.46,0,1.29-.02,2.48-.07v.74h-.76c-.68,0-1.11.12-1.26.35-.15.24-.23,1.09-.23,2.56v8.51c0,1.89.08,2.98.24,3.26.16.28.61.42,1.34.42h.66v.74c-1.08-.05-2.11-.07-3.1-.07-1.09,0-2.23.02-3.42.07v-.74h.77c.61,0,.98-.14,1.11-.4.13-.27.19-1.42.19-3.45v-9.47Zm167.24,8.53c-.12.66-.18,1.32-.18,2,0,.72.06,1.52.17,2.42-1.04.41-2.2.73-3.5.98-1.3.25-2.54.37-3.73.37-1.84,0-3.44-.36-4.83-1.08-1.39-.72-2.46-1.72-3.2-2.99-.74-1.28-1.12-2.73-1.12-4.36s.4-3.17,1.2-4.48c.8-1.31,1.91-2.33,3.34-3.05,1.43-.73,3.24-1.09,5.43-1.09.89,0,1.72.06,2.47.17.75.12,1.74.35,2.95.7l.99.27c-.21.82-.38,1.97-.5,3.45h-.74v-.77c0-.76-.06-1.21-.19-1.34-.23-.25-.85-.56-1.85-.92-1-.37-2.15-.55-3.44-.55-2.28,0-4.02.61-5.24,1.84-1.32,1.33-1.98,3.1-1.98,5.3s.6,3.89,1.79,5.34c1.4,1.71,3.31,2.56,5.73,2.56,1.26,0,2.62-.28,4.09-.83.05-.65.07-1.35.07-2.09,0-.96-.02-1.51-.05-1.65-.03-.15-.09-.24-.17-.28-.08-.04-.49-.1-1.22-.16l-1.38-.12v-.74c1.78.08,3.11.12,3.97.12.75,0,1.39-.04,1.93-.12v.57l-.83.54Zm-29.34-1.04h5.87l-2.93-6.99-2.94,6.99Zm6.31.96h-6.74l-.8,1.89c-.52,1.24-.78,2-.78,2.28,0,.18.05.31.15.39.1.08.34.14.74.19l1.12.13v.74c-.74-.05-1.58-.07-2.52-.07-1.12,0-2.11.02-2.95.07v-.74h.35c.55-.03.9-.08,1.06-.18.16-.1.33-.34.51-.72.55-1.12,1.12-2.33,1.7-3.63l3.21-7.26c.86-1.93,1.44-3.32,1.75-4.2h.79l5.91,13.72c.4.93.66,1.49.79,1.68.13.19.29.33.46.41.17.08.55.14,1.15.17v.74c-1.01-.05-1.97-.07-2.89-.07-.86,0-1.99.02-3.42.07v-.74l1.15-.07c.41-.03.66-.07.74-.13.12-.08.18-.19.18-.33,0-.14-.12-.51-.35-1.1l-1.29-3.25Z"></path><path class="cls-2" d="m75.67,43.85c1.42.39,2.79,1.55,3.61,3.24.82,1.68.89,3.48.33,4.84-1.42-.39-2.79-1.55-3.62-3.24-.82-1.68-.89-3.48-.33-4.84"></path><path class="cls-1" d="m79.6,54.45c.37,0,.54,0,.91,0,.33,0,.66,0,.98,0-.79,4.5-3.03,12.3-4.73,16.65-.3,0-.61,0-.93,0-.59,0-.84,0-1.38,0,2.3-5.35,4.02-10.96,5.16-16.65"></path></g></svg>